HIERARCHY
ROOT Hips
{
	OFFSET 0.00000 0.00000 0.00000
	CHANNELS 6 Xposition Yposition Zposition Zrotation Yrotation Xrotation 
	JOINT LHipJoint
	{
		OFFSET 0 0 0
		CHANNELS 3 Zrotation Yrotation Xrotation
		JOINT LeftUpLeg
		{
			OFFSET 1.53139 -1.83434 0.76626
			CHANNELS 3 Zrotation Yrotation Xrotation
			JOINT LeftLeg
			{
				OFFSET 2.56112 -7.03663 0.00000
				CHANNELS 3 Zrotation Yrotation Xrotation
				JOINT LeftFoot
				{
					OFFSET 2.59983 -7.14299 0.00000
					CHANNELS 3 Zrotation Yrotation Xrotation
					JOINT LeftToeBase
					{
						OFFSET 0.13742 -0.37757 2.00054
						CHANNELS 3 Zrotation Yrotation Xrotation
						End Site
						{
							OFFSET 0.00000 -0.00000 1.02897
						}
					}
				}
			}
		}
	}
	JOINT RHipJoint
	{
		OFFSET 0 0 0
		CHANNELS 3 Zrotation Yrotation Xrotation
		JOINT RightUpLeg
		{
			OFFSET -1.40122 -1.83435 0.76627
			CHANNELS 3 Zrotation Yrotation Xrotation
			JOINT RightLeg
			{
				OFFSET -2.54052 -6.98003 0.00000
				CHANNELS 3 Zrotation Yrotation Xrotation
				JOINT RightFoot
				{
					OFFSET -2.63179 -7.23079 0.00000
					CHANNELS 3 Zrotation Yrotation Xrotation
					JOINT RightToeBase
					{
						OFFSET -0.24131 -0.66299 2.03908
						CHANNELS 3 Zrotation Yrotation Xrotation
						End Site
						{
							OFFSET -0.00000 -0.00000 1.07391
						}
					}
				}
			}
		}
	}
	JOINT LowerBack
	{
		OFFSET 0 0 0
		CHANNELS 3 Zrotation Yrotation Xrotation
		JOINT Spine
		{
			OFFSET 0.01174 2.10302 -0.29778
			CHANNELS 3 Zrotation Yrotation Xrotation
			JOINT Spine1
			{
				OFFSET 0.00772 2.13227 -0.01247
				CHANNELS 3 Zrotation Yrotation Xrotation
				JOINT Neck
				{
					OFFSET 0 0 0
					CHANNELS 3 Zrotation Yrotation Xrotation
					JOINT Neck1
					{
						OFFSET -0.09219 1.60848 0.31481
						CHANNELS 3 Zrotation Yrotation Xrotation
						JOINT Head
						{
							OFFSET 0.13974 1.65456 -0.31134
							CHANNELS 3 Zrotation Yrotation Xrotation
							End Site
							{
								OFFSET 0.04742 1.69515 -0.14578
							}
						}
					}
				}
				JOINT LeftShoulder
				{
					OFFSET 0 0 0
					CHANNELS 3 Zrotation Yrotation Xrotation
					JOINT LeftArm
					{
						OFFSET 3.24909 1.02882 -0.23993
						CHANNELS 3 Zrotation Yrotation Xrotation
						JOINT LeftForeArm
						{
							OFFSET 5.32955 -0.00000 -0.00000
							CHANNELS 3 Zrotation Yrotation Xrotation
							JOINT LeftHand
							{
								OFFSET 3.69232 -0.00000 -0.00000
								CHANNELS 3 Zrotation Yrotation Xrotation
								JOINT LeftFingerBase
								{
									OFFSET 0 0 0
									CHANNELS 3 Zrotation Yrotation Xrotation
									JOINT LeftHandIndex1
									{
										OFFSET 0.53660 -0.00000 -0.00000
										CHANNELS 3 Zrotation Yrotation Xrotation
										End Site
										{
											OFFSET 0.43262 -0.00000 -0.00000
										}
									}
								}
								JOINT LThumb
								{
									OFFSET 0 0 0
									CHANNELS 3 Zrotation Yrotation Xrotation
									End Site
									{
										OFFSET 0.43922 -0.00000 0.43922
									}
								}
							}
						}
					}
				}
				JOINT RightShoulder
				{
					OFFSET 0 0 0
					CHANNELS 3 Zrotation Yrotation Xrotation
					JOINT RightArm
					{
						OFFSET -3.21387 0.93002 -0.34594
						CHANNELS 3 Zrotation Yrotation Xrotation
						JOINT RightForeArm
						{
							OFFSET -5.23431 -0.00000 0.00000
							CHANNELS 3 Zrotation Yrotation Xrotation
							JOINT RightHand
							{
								OFFSET -3.55301 -0.00000 -0.00000
								CHANNELS 3 Zrotation Yrotation Xrotation
								JOINT RightFingerBase
								{
									OFFSET 0 0 0
									CHANNELS 3 Zrotation Yrotation Xrotation
									JOINT RightHandIndex1
									{
										OFFSET -0.77252 -0.00000 -0.00000
										CHANNELS 3 Zrotation Yrotation Xrotation
										End Site
										{
											OFFSET -0.62283 -0.00000 -0.00000
										}
									}
								}
								JOINT RThumb
								{
									OFFSET 0 0 0
									CHANNELS 3 Zrotation Yrotation Xrotation
									End Site
									{
										OFFSET -0.63234 -0.00000 0.63234
									}
								}
							}
						}
					}
				}
			}
		}
	}
}
MOTION
Frames: 14
Frame Time: 0.142857
0.00 0.00 0.00 0 0 0 0 0 0 -21 0 0 0 0 0 0 0 0 0 0 0 0 0 0 21 0 0 0 0 0 0 0 0 0 0 0 0 0 0 0 0 0 0 0 0 0 0 -16 0 0 21 0 0 11 0 0 0 -8 0 0 0 0 0 0 0 0 0 0 0 0 0 0 0 0 0 0 0 0 8 0 0 0 0 0 0 0 0 0 0 0 0 0 0 0 0 0
0.00 0.00 0.00 5.1117 45.4812 3.6718 0.0000 0.0000 0.0000 -6.3433 -11.6541 -8.3394 1.6410 8.0743 22.9401 0.0265 1.6556 2.9403 0.3679 -3.8959 -10.7841 0.0000 0.0000 0.0000 13.2530 5.0216 -1.3870 -1.5959 -7.9680 22.6169 -0.6691 5.7912 -14.5781 -0.0102 0.6526 -1.7934 0.7153 1.2533 12.2534 -0.0459 1.7791 0.9069 -0.7567 0.8624 -5.8966 -10.2412 0.3443 -20.5822 3.7475 3.6854 35.1201 4.1424 0.8793 15.6219 -0.0000 0.0000 0.0000 -87.2368 0.1154 11.5785 17.0733 -26.9543 -4.1205 -0.0000 -0.0000 7.5643 17.7328 22.1501 6.8747 -7.1250 0.0000 -0.0000 -11.5039 52.7565 -2.2193 -0.0000 0.0000 0.0000 84.1515 -2.2945 10.3340 -15.8879 25.3684 -3.5978 0.0000 0.0000 6.3991 -15.2345 7.8429 -2.1283 7.1250 -0.0000 -0.0000 8.4205 -21.8861 4.7248
0.00 0.00 0.00 7.0729 46.3490 2.8335 0.0000 0.0000 0.0000 -23.2296 -4.5586 -0.8215 1.0056 6.3810 17.8938 0.0244 -10.5254 -7.7611 0.1996 -2.8769 -7.9361 0.0000 0.0000 0.0000 5.1691 12.0492 -9.0916 -6.5962 -14.9823 47.3302 -0.5715 7.6718 -13.6993 -0.2641 3.3063 -9.1328 -2.2689 1.0328 11.6989 1.0977 1.1559 0.5365 2.2409 0.6530 -6.0725 -10.2109 0.3902 -20.1726 3.8844 3.5481 34.1829 4.1090 0.8867 15.0820 0.0000 -0.0000 0.0000 -86.0438 0.5606 21.7347 16.7998 -26.5931 -3.9973 -0.0000 -0.0000 6.1439 19.7082 24.3272 8.3943 -7.1250 0.0000 -0.0000 -10.4252 55.3272 -2.6642 0.0000 -0.0000 0.0000 85.7403 -3.3604 7.3636 -17.8643 27.9831 -4.4854 0.0000 0.0000 8.7896 -13.8550 10.1478 -2.4882 7.1250 -0.0000 -0.0000 9.3366 -19.6043 5.7388
0.00 0.00 0.00 6.0835 48.7149 -0.2383 0.0000 0.0000 0.0000 -25.1519 -0.9270 -7.5700 3.1725 10.9693 32.1763 -1.2889 -20.9574 -0.0981 0.0100 0.6468 1.7774 0.0000 0.0000 0.0000 19.7503 -0.6103 -8.0557 -6.3687 -14.7763 46.4440 -0.5445 5.4900 -13.1524 -0.2604 3.2832 -9.0684 -1.5007 1.5169 11.6450 0.1309 1.8591 1.5017 0.6883 0.9584 -5.0069 -10.4288 0.0225 -19.6921 4.8115 2.7250 34.2360 4.3920 0.6570 15.0429 -0.0000 0.0000 0.0000 -85.0538 -1.5741 18.5442 17.3997 -27.3817 -4.2696 -0.0000 -0.0000 5.5118 19.7842 25.3386 8.7516 -7.1250 0.0000 -0.0000 -10.8130 56.3647 -3.0382 -0.0000 0.0000 0.0000 89.0210 -3.8496 10.9738 -16.2110 25.8060 -3.7374 0.0000 0.0000 9.4808 -14.6817 9.3127 -2.4278 7.1250 -0.0000 -0.0000 8.7726 -20.4104 5.2232
0.00 0.00 0.00 4.4163 49.9669 -1.4832 0.0000 0.0000 0.0000 -22.6994 -1.3176 -13.5013 4.8736 13.2400 40.2736 -1.5491 -22.0917 14.5052 0.1966 2.8553 7.8763 0.0000 0.0000 0.0000 20.6171 -0.3098 -5.9517 -5.5163 -13.9427 43.0082 -0.5408 4.2838 -13.0945 -0.1273 2.2997 -6.3347 0.5290 1.2396 11.7751 0.3461 1.7620 1.5079 -0.2172 0.8741 -5.0161 -10.5593 -0.1095 -19.7532 4.6367 2.6786 34.4839 4.3494 0.5895 15.1871 -0.0000 -0.0000 0.0000 -86.4746 -1.4999 16.5201 17.0876 -26.9731 -4.1270 -0.0000 -0.0000 6.2009 20.0424 24.7451 8.6821 -7.1250 0.0000 -0.0000 -10.2661 55.8180 -2.7457 -0.0000 -0.0000 0.0000 88.5819 -3.4666 10.5859 -15.7659 25.2022 -3.5457 0.0000 0.0000 9.9739 -14.3805 9.0904 -2.3197 7.1250 -0.0000 -0.0000 8.9944 -20.6516 5.3091
0.00 0.00 0.00 2.5908 46.0363 -4.8071 0.0000 0.0000 0.0000 -4.5221 -15.8522 -15.4276 7.7531 15.9346 51.6683 0.3653 -5.9976 15.1872 0.3273 3.6772 10.1703 0.0000 0.0000 0.0000 17.7824 -0.2907 5.1903 -2.3553 -9.5699 27.5948 -0.3414 0.2392 -10.9563 -0.3294 3.6886 -10.2022 1.4809 2.4699 13.3451 0.1637 3.5341 1.5799 -1.2984 1.7172 -5.7281 -9.4167 0.0054 -19.6662 5.3187 2.1265 34.2474 4.3304 0.6113 15.0915 0.0000 -0.0000 0.0000 -87.5490 1.1096 13.3659 16.0165 -25.5431 -3.6531 -0.0000 -0.0000 7.9117 18.9861 24.3603 8.0771 -7.1250 0.0000 -0.0000 -11.1854 55.2167 -2.8317 0.0000 -0.0000 0.0000 86.3729 -2.3000 9.5441 -16.4028 26.0637 -3.8212 0.0000 0.0000 5.7538 -15.7321 7.4289 -2.0859 7.1250 -0.0000 -0.0000 8.0731 -22.2897 4.4510
0.00 0.00 0.00 1.8554 48.1833 -1.4690 0.0000 0.0000 0.0000 -15.0372 -7.3636 -18.2275 6.5985 14.9843 47.3390 -2.2275 -26.0143 3.4680 1.4426 -7.5931 -21.4847 0.0000 0.0000 0.0000 21.7894 -0.5408 -4.5335 -2.7074 -10.2057 29.6453 -1.1462 2.6261 -19.5340 -0.0476 -1.4084 3.8732 2.0394 2.2159 11.7648 1.5159 3.3388 0.2692 -0.1214 1.6055 -6.2922 -9.1415 0.1643 -19.2780 4.1855 2.8779 36.8541 4.0738 0.7487 16.2509 -0.0000 0.0000 0.0000 -90.3588 -0.2799 15.9632 16.2119 -25.8071 -3.7377 -0.0000 -0.0000 5.0004 22.5437 24.5672 9.7919 -7.1250 0.0000 -0.0000 -7.5588 56.1541 -2.0763 -0.0000 0.0000 0.0000 85.6104 -5.0868 14.6493 -16.8247 26.6260 -4.0084 0.0000 0.0000 7.5083 -15.7009 9.4090 -2.6312 7.1250 -0.0000 -0.0000 8.0428 -20.2585 4.8074
0.00 0.00 0.00 2.7817 43.7707 -2.0433 0.0000 0.0000 0.0000 -1.0056 -21.6361 -6.8661 3.9395 12.0795 36.0138 0.6739 -5.1281 18.2129 0.1143 2.1799 6.0031 0.0000 0.0000 0.0000 14.8126 2.3658 4.0097 -1.1012 -6.6678 18.7348 -0.6484 0.3302 -15.1071 -0.2762 3.3804 -9.3396 1.3242 2.8931 12.7362 0.5256 4.0807 1.3985 -0.8991 1.9913 -5.6046 -9.0597 0.3941 -19.0734 4.4421 3.0679 37.0266 4.2075 0.8624 16.2588 0.0000 -0.0000 0.0000 -91.1799 1.0311 8.2665 15.0352 -24.1951 -3.2403 -0.0000 -0.0000 6.4086 30.0240 23.9791 13.2172 -7.1250 0.0000 -0.0000 0.8064 57.1686 0.2404 0.0000 -0.0000 0.0000 84.1668 -1.2736 16.4859 -18.3879 28.6510 -4.7337 0.0000 0.0000 5.1537 -16.4682 8.5456 -2.5152 7.1250 -0.0000 -0.0000 7.5102 -21.1064 4.3387
0.00 0.00 0.00 3.2932 28.6813 0.1906 0.0000 0.0000 0.0000 -8.0563 -19.3728 0.8837 0.6437 5.1327 14.2874 -2.1761 -25.0401 8.8339 0.0059 0.4945 1.3588 0.0000 0.0000 0.0000 12.0644 7.8944 -1.1628 -2.2786 -9.4238 27.1302 -0.5710 19.9989 -18.4179 -0.0866 1.8980 -5.2239 2.6436 2.3796 10.9026 0.4811 3.5311 0.2259 -1.5321 1.6721 -5.7471 -12.0880 -2.9766 -17.7404 7.5304 -2.5799 36.9696 5.0670 -1.5614 16.6028 0.0000 0.0000 0.0000 -92.8978 4.2560 9.3319 14.5537 -23.5208 -3.0456 -0.0000 -0.0000 6.5566 25.9109 23.9059 11.1372 -7.1250 0.0000 -0.0000 -3.7048 56.1757 -1.0165 0.0000 0.0000 0.0000 82.6239 -0.7610 14.2313 -18.7429 29.0979 -4.9052 0.0000 0.0000 4.5572 -13.5378 6.4827 -1.5572 7.1250 -0.0000 -0.0000 9.7165 -23.3324 5.1453
0.00 0.00 0.00 3.5033 -20.2213 0.4246 0.0000 0.0000 0.0000 -23.0445 1.5356 -10.1775 3.3128 11.1850 32.9064 0.4982 -5.2717 -12.5782 1.0249 -6.4401 -18.0667 0.0000 0.0000 0.0000 20.3002 -7.0841 -9.6859 -4.1458 -12.3519 36.9884 -1.4657 2.4203 -22.2320 -0.1635 2.6055 -7.1822 -3.1176 1.7460 9.3896 0.3608 2.0007 0.1773 1.8545 1.0672 -5.2054 -11.6846 -4.0603 -16.2112 8.1977 -5.5212 35.7089 4.5982 -2.8654 16.0030 0.0000 -0.0000 0.0000 -81.2842 2.1175 18.6917 15.0929 -24.2753 -3.2640 -0.0000 -0.0000 6.7901 22.7086 26.8206 10.6927 -7.1250 0.0000 -0.0000 -8.3967 58.5088 -2.7865 0.0000 -0.0000 0.0000 89.9112 -2.9530 14.0925 -17.0109 26.8722 -4.0923 0.0000 0.0000 6.6449 -17.7447 8.4604 -2.6955 7.1250 -0.0000 -0.0000 6.5913 -21.1281 3.7971
0.00 0.00 0.00 1.9353 35.0050 -358.5470 0.0000 0.0000 0.0000 -9.6261 -12.0679 -3.2487 1.4023 7.4909 21.1780 0.1395 -14.1771 -11.5160 1.6397 -8.0714 -22.9313 0.0000 0.0000 0.0000 1.0267 8.0736 -3.2824 -0.9938 -6.3446 17.7876 0.3016 16.8513 -8.5893 -0.9695 6.2686 -17.5658 0.2981 1.6619 12.3547 0.8950 2.3306 -0.6310 0.3432 1.1431 -7.6389 -9.7804 -0.2991 -21.4593 2.4837 3.3373 38.5784 3.6311 0.4181 17.7570 -0.0000 0.0000 0.0000 -90.4411 -1.8416 34.1380 18.6668 -29.0025 -4.8682 -0.0000 -0.0000 4.2571 20.9763 23.7426 8.7751 -7.1250 0.0000 -0.0000 -8.8621 54.9850 -2.1858 -0.0000 0.0000 0.0000 80.7700 -3.6660 8.5332 -17.1407 27.0428 -4.1511 0.0000 0.0000 4.2298 -17.9259 7.0373 -2.2696 7.1250 -0.0000 -0.0000 6.4826 -22.6014 3.5153
0.00 0.00 0.00 -356.0530 40.3129 -357.5690 0.0000 0.0000 0.0000 -21.3508 -6.9848 -8.6019 1.8817 8.6153 24.5990 -1.1555 -18.9484 3.3254 0.0220 0.9584 2.6344 0.0000 0.0000 0.0000 19.6339 -2.3964 -11.4212 -5.6642 -14.0949 43.6188 1.0947 20.2095 -2.0406 -0.5936 4.9324 -13.7160 -2.0709 2.3172 12.0157 -0.0674 2.8054 0.6018 0.6125 1.4381 -6.2033 -9.7838 -0.1521 -17.1065 4.2183 2.6402 40.3248 4.3085 0.4349 17.6090 0.0000 0.0000 0.0000 -81.5356 -5.7246 21.7530 15.7952 -25.2421 -3.5582 -0.0000 -0.0000 4.2818 19.2208 22.2590 7.5232 -7.1250 0.0000 -0.0000 -10.0598 53.1356 -2.0296 0.0000 0.0000 0.0000 89.0800 -4.3224 13.8746 -18.3370 28.5865 -4.7094 0.0000 0.0000 7.0129 -18.9940 10.3183 -3.5280 7.1250 -0.0000 -0.0000 5.6938 -19.1104 3.5334
0.00 0.00 0.00 -354.2130 43.1276 -355.3910 0.0000 0.0000 0.0000 -21.6240 -7.4384 -10.4050 1.4668 7.6537 21.6672 -1.0338 -22.0952 22.5706 0.8516 5.8856 16.4530 0.0000 0.0000 0.0000 20.2006 -1.6854 -7.0498 -3.8339 -11.9361 35.5062 -0.5056 5.2946 -12.6704 -0.1501 2.4963 -6.8794 1.0121 2.8168 11.1567 -1.0025 3.8271 0.5691 -2.2168 1.8516 -5.5180 -10.7365 -0.1546 -16.2494 3.2757 3.4714 40.5965 4.1961 0.5390 17.5019 0.0000 0.0000 0.0000 -83.3507 -5.8330 23.9738 19.6139 -30.1743 -5.3359 -0.0000 -0.0000 3.2536 20.5188 21.9681 7.9700 -7.1250 0.0000 -0.0000 -8.6422 53.0763 -1.7273 0.0000 0.0000 0.0000 88.6124 -5.4103 18.4483 -17.9923 28.1474 -4.5456 0.0000 0.0000 6.4917 -17.7799 9.8385 -3.1364 7.1250 -0.0000 -0.0000 6.5554 -19.6926 3.9890
0.00 0.00 0.00 -189.9130 -41.3901 -536.0330 0.0000 0.0000 0.0000 -20.7665 2.2857 -1.7640 0.9282 6.1374 17.1836 0.2180 -4.3670 -8.3879 1.0215 -6.4298 -18.0367 0.0000 0.0000 0.0000 -2.1684 10.1129 -3.1697 -4.8572 -13.2212 40.2021 0.9015 -16.9931 -10.6246 -1.1844 -6.9067 19.4393 -2.0809 1.2056 12.9309 -0.1916 1.1690 1.6911 0.7748 0.5619 -5.5099 -10.0309 2.6592 -16.9079 3.3673 3.6614 39.8183 3.7217 -0.4713 17.0926 -0.0000 -0.0000 0.0000 -88.8600 -1.3800 35.0703 15.5042 -24.8438 -3.4350 -0.0000 -0.0000 7.4195 21.3171 21.5589 8.1602 -7.1250 0.0000 -0.0000 -7.6909 52.8004 -1.4832 -0.0000 -0.0000 0.0000 83.5497 -5.9914 7.4284 -20.6472 31.4142 -5.8650 0.0000 0.0000 2.2568 -21.8112 10.3705 -4.1205 7.1250 -0.0000 -0.0000 3.6980 -18.8419 2.3104
